{
  "accessors": [
    {
      "bufferView": 2,
      "componentType": 5126,
      "count": 6910,
      "max": [
        10.754199981689453,
        55.58810043334961,
        22.239500045776367
      ],
      "min": [
        -22.349700927734375,
        -5.756649971008301,
        -26.436500549316406
      ],
      "type": "VEC3"
    },
    {
      "bufferView": 2,
      "byteOffset": 82920,
      "componentType": 5126,
      "count": 6910,
      "max": [
        0.9997042417526245,
        0.9998993277549744,
        0.9998806715011597
      ],
      "min": [
        -0.9999881386756897,
        -0.9931784868240356,
        -0.9999961853027344
      ],
      "type": "VEC3"
    },
    {
      "bufferView": 1,
      "componentType": 5126,
      "count": 6910,
      "max": [
        0.9978079795837402,
        0.9978079795837402
      ],
      "min": [
        0.002191999927163124,
        0.014406999573111534
      ],
      "type": "VEC2"
    },
    {
      "bufferView": 1,
      "byteOffset": 55280,
      "componentType": 5126,
      "count": 6910,
      "max": [
        0.9978079795837402,
        0.9978079795837402
      ],
      "min": [
        0.002191999927163124,
        0.014406999573111534
      ],
      "type": "VEC2"
    },
    {
      "bufferView": 0,
      "componentType": 5125,
      "count": 38712,
      "type": "SCALAR"
    }
  ],
  "asset": {
    "extras": {
      "author": "nottyairs (https://sketchfab.com/nottyairs)",
      "license": "CC-BY-4.0 (http://creativecommons.org/licenses/by/4.0/)",
      "source": "https://sketchfab.com/3d-models/t-shirt-1ed377fc5d754fe5bef6eb7053c0d5e2",
      "title": "t-shirt"
    },
    "generator": "Sketchfab-12.68.0",
    "version": "2.0"
  },
  "bufferViews": [
    {
      "buffer": 0,
      "byteLength": 154848,
      "name": "floatBufferViews",
      "target": 34963
    },
    {
      "buffer": 0,
      "byteLength": 110560,
      "byteOffset": 154848,
      "byteStride": 8,
      "name": "floatBufferViews",
      "target": 34962
    },
    {
      "buffer": 0,
      "byteLength": 165840,
      "byteOffset": 265408,
      "byteStride": 12,
      "name": "floatBufferViews",
      "target": 34962
    }
  ],
  "buffers": [
    {
      "byteLength": 431248,
      "uri": "scene.bin"
    }
  ],
  "images": [
    {
      "uri": "textures/material_baseColor.jpeg"
    }
  ],
  "materials": [
    {
      "doubleSided": true,
      "name": "material",
      "pbrMetallicRoughness": {
        "baseColorTexture": {
          "index": 0
        },
        "metallicFactor": 0.0,
        "roughnessFactor": 0.955012694
      }
    }
  ],
  "meshes": [
    {
      "name": "Mat",
      "primitives": [
        {
          "attributes": {
            "NORMAL": 1,
            "POSITION": 0,
            "TEXCOORD_0": 2,
            "TEXCOORD_1": 3
          },
          "indices": 4,
          "material": 0,
          "mode": 4
        }
      ]
    }
  ],
  "nodes": [
    {
      "children": [
        1
      ],
      "matrix": [
        1.0,
        0.0,
        0.0,
        0.0,
        0.0,
        2.220446049250313e-16,
        -1.0,
        0.0,
        0.0,
        1.0,
        2.220446049250313e-16,
        0.0,
        0.0,
        0.0,
        0.0,
        1.0
      ],
      "name": "Sketchfab_model"
    },
    {
      "children": [
        2,
        4,
        6
      ],
      "matrix": [
        1.0,
        0.0,
        0.0,
        0.0,
        0.0,
        -4.371139006309477e-08,
        0.999999999999999,
        0.0,
        0.0,
        -0.999999999999999,
        -4.371139006309477e-08,
        0.0,
        0.0,
        0.0,
        0.0,
        1.0
      ],
      "name": "Collada visual scene group"
    },
    {
      "children": [
        3
      ],
      "name": "T-Shirt"
    },
    {
      "mesh": 0,
      "name": "Mat"
    },
    {
      "children": [
        5
      ],
      "name": "Image_Based_Light_1"
    },
    {
      "name": "Image_Based_Light_1"
    },
    {
      "children": [
        7
      ],
      "matrix": [
        0.7247850302511261,
        0.6885155442521947,
        -0.025159595524943235,
        0.0,
        0.0,
        0.0365174246211901,
        0.9993330164159673,
        0.0,
        0.6889750793199089,
        -0.7243016105339958,
        0.026467282708762474,
        0.0,
        6.226222284970774,
        124.21040260362179,
        -184.89315824586888,
        1.0
      ],
      "name": "Infinite_Light_1"
    },
    {
      "name": "Infinite_Light_1"
    }
  ],
  "samplers": [
    {
      "magFilter": 9729,
      "minFilter": 9987,
      "wrapS": 10497,
      "wrapT": 10497
    }
  ],
  "scene": 0,
  "scenes": [
    {
      "name": "Sketchfab_Scene",
      "nodes": [
        0
      ]
    }
  ],
  "textures": [
    {
      "sampler": 0,
      "source": 0
    }
  ]
}
