{
  "accessors": [
    {
      "bufferView": 2,
      "componentType": 5126,
      "count": 5109,
      "max": [
        43.45436477661133,
        25.539583206176758,
        55.15534591674805
      ],
      "min": [
        0.0,
        0.6188840866088867,
        2.640065908432007
      ],
      "type": "VEC3"
    },
    {
      "bufferView": 2,
      "byteOffset": 61308,
      "componentType": 5126,
      "count": 5109,
      "max": [
        0.9998781085014343,
        0.9999874830245972,
        0.998487651348114
      ],
      "min": [
        -0.9998476505279541,
        -0.9999755024909973,
        -0.99880450963974
      ],
      "type": "VEC3"
    },
    {
      "bufferView": 1,
      "componentType": 5126,
      "count": 5109,
      "max": [
        0.9927669763565063,
        0.9904239773750305
      ],
      "min": [
        0.006955999881029129,
        0.05677799880504608
      ],
      "type": "VEC2"
    },
    {
      "bufferView": 0,
      "componentType": 5125,
      "count": 25086,
      "type": "SCALAR"
    },
    {
      "bufferView": 2,
      "byteOffset": 122616,
      "componentType": 5126,
      "count": 6910,
      "max": [
        110.00856018066406,
        26.98285675048828,
        61.34479522705078
      ],
      "min": [
        54.735328674316406,
        0.0,
        0.0
      ],
      "type": "VEC3"
    },
    {
      "bufferView": 2,
      "byteOffset": 205536,
      "componentType": 5126,
      "count": 6910,
      "max": [
        0.9999991059303284,
        0.9999884963035583,
        0.9998995065689087
      ],
      "min": [
        -0.9999258518218994,
        -0.9999733567237854,
        -0.9931784868240356
      ],
      "type": "VEC3"
    },
    {
      "bufferView": 1,
      "byteOffset": 40872,
      "componentType": 5126,
      "count": 6910,
      "max": [
        0.9978079795837402,
        0.9978079795837402
      ],
      "min": [
        0.002191999927163124,
        0.014406999573111534
      ],
      "type": "VEC2"
    },
    {
      "bufferView": 0,
      "byteOffset": 100344,
      "componentType": 5125,
      "count": 38712,
      "type": "SCALAR"
    }
  ],
  "asset": {
    "extras": {
      "author": "NeoQueer (https://sketchfab.com/NeoQueer)",
      "license": "CC-BY-4.0 (http://creativecommons.org/licenses/by/4.0/)",
      "source": "https://sketchfab.com/3d-models/tshirts-766be84457bd4b50a04c1d7442444baf",
      "title": "T+shirts"
    },
    "generator": "Sketchfab-12.68.0",
    "version": "2.0"
  },
  "bufferViews": [
    {
      "buffer": 0,
      "byteLength": 255192,
      "name": "floatBufferViews",
      "target": 34963
    },
    {
      "buffer": 0,
      "byteLength": 96152,
      "byteOffset": 255192,
      "byteStride": 8,
      "name": "floatBufferViews",
      "target": 34962
    },
    {
      "buffer": 0,
      "byteLength": 288456,
      "byteOffset": 351344,
      "byteStride": 12,
      "name": "floatBufferViews",
      "target": 34962
    }
  ],
  "buffers": [
    {
      "byteLength": 639800,
      "uri": "scene.bin"
    }
  ],
  "materials": [
    {
      "doubleSided": true,
      "name": "initialShadingGroup",
      "pbrMetallicRoughness": {
        "metallicFactor": 0.0,
        "roughnessFactor": 0.6
      }
    }
  ],
  "meshes": [
    {
      "name": "Object_0",
      "primitives": [
        {
          "attributes": {
            "NORMAL": 1,
            "POSITION": 0,
            "TEXCOORD_0": 2
          },
          "indices": 3,
          "material": 0,
          "mode": 4
        }
      ]
    },
    {
      "name": "Object_1",
      "primitives": [
        {
          "attributes": {
            "NORMAL": 5,
            "POSITION": 4,
            "TEXCOORD_0": 6
          },
          "indices": 7,
          "material": 0,
          "mode": 4
        }
      ]
    }
  ],
  "nodes": [
    {
      "children": [
        1
      ],
      "matrix": [
        1.0,
        0.0,
        0.0,
        0.0,
        0.0,
        2.220446049250313e-16,
        -1.0,
        0.0,
        0.0,
        1.0,
        2.220446049250313e-16,
        0.0,
        0.0,
        0.0,
        0.0,
        1.0
      ],
      "name": "Sketchfab_model"
    },
    {
      "children": [
        2
      ],
      "matrix": [
        1.0,
        0.0,
        0.0,
        0.0,
        0.0,
        1.0,
        0.0,
        0.0,
        0.0,
        0.0,
        1.0,
        0.0,
        -82.41108703613281,
        -13.935164451599121,
        -5.756649017333984,
        1.0
      ],
      "name": "t+shirts.obj.cleaner.gles"
    },
    {
      "children": [
        3,
        4
      ],
      "name": "Object_2"
    },
    {
      "mesh": 0,
      "name": "Object_3"
    },
    {
      "mesh": 1,
      "name": "Object_4"
    }
  ],
  "scene": 0,
  "scenes": [
    {
      "name": "Sketchfab_Scene",
      "nodes": [
        0
      ]
    }
  ]
}
